<svg version="1.1" id="Layer_1" xmlns="http://www.w3.org/2000/svg" xmlns:xlink="http://www.w3.org/1999/xlink" x="0px" y="0px"
	 width="100%" viewBox="0 0 512 512" enable-background="new 0 0 512 512" xml:space="preserve">
<path fill="transparent" opacity="1.000000" stroke="none" 
	d="
M282.000000,513.000000 
	C188.022812,513.000000 94.545624,513.000000 1.034216,513.000000 
	C1.034216,342.397797 1.034216,171.795563 1.034216,1.096670 
	C171.560532,1.096670 342.121155,1.096670 512.840881,1.096670 
	C512.840881,171.666550 512.840881,342.333252 512.840881,513.000000 
	C436.128876,513.000000 359.314423,513.000000 282.000000,513.000000 
M304.041382,9.037217 
	C301.543213,9.025219 299.043976,8.960406 296.547119,9.012036 
	C291.066864,9.125357 289.024017,11.057011 289.022919,16.524151 
	C289.017059,45.669380 289.081665,74.814621 289.017578,104.894608 
	C288.971985,110.230591 288.926422,115.566574 287.961365,120.980637 
	C234.580704,120.987083 181.199951,121.033989 127.819557,120.919098 
	C123.782471,120.910408 120.702232,122.065887 119.764854,125.841400 
	C118.203522,132.130127 117.328430,138.589233 115.786232,145.680649 
	C115.304695,147.526840 114.791901,149.365540 114.347580,151.220657 
	C113.112213,156.378448 116.284798,160.691940 121.603172,160.976013 
	C124.058716,161.107178 126.526848,161.002625 128.998322,161.938156 
	C129.664764,172.098587 130.307053,182.260696 131.003464,192.419067 
	C131.980042,206.664017 133.005569,220.905609 133.994202,235.149734 
	C135.005829,249.725266 136.071274,264.297577 136.976639,278.879761 
	C137.751358,291.357544 138.314072,303.848389 139.009003,316.331299 
	C139.292404,321.422272 139.621490,326.512054 140.026154,331.594696 
	C141.326340,347.925720 142.685272,364.252075 143.993698,380.582458 
	C144.687561,389.242401 145.413086,397.901245 145.967163,406.570648 
	C147.036774,423.306549 147.965073,440.051453 149.032700,456.787506 
	C149.186050,459.191376 149.788544,461.566620 150.007202,464.875549 
	C150.322571,472.955475 150.179962,481.086609 151.076111,489.101593 
	C152.064270,497.939362 157.298691,505.236389 168.793579,505.166901 
	C228.237457,504.807709 287.684662,504.997864 347.130707,505.004944 
	C354.776337,505.005859 360.872955,500.590912 361.894470,492.840057 
	C363.408691,481.350677 364.064972,469.746582 365.024048,458.186157 
	C365.743073,449.519806 366.412292,440.848724 367.017456,432.173706 
	C368.057800,417.259857 369.094971,402.345306 370.012390,387.423584 
	C370.770264,375.096161 371.269196,362.752655 372.047913,350.426727 
	C372.458527,343.927429 373.222076,337.450409 373.944427,330.049347 
	C374.630188,320.893982 375.338562,311.740265 375.995453,302.582825 
	C376.688446,292.921356 377.332977,283.256409 377.997437,273.592896 
	C378.999054,259.026398 379.990356,244.459183 381.003815,229.893524 
	C381.652069,220.576599 382.443665,211.268234 382.972076,201.944748 
	C383.745209,188.303497 384.339966,174.652130 385.913513,161.000931 
	C387.246704,161.000671 388.579895,161.002319 389.913086,160.999863 
	C398.146423,160.984634 400.607544,157.912231 399.066681,149.623642 
	C397.691010,142.223755 396.546722,134.773224 394.904175,127.433693 
	C394.026611,123.512451 391.796722,120.622177 386.947632,120.945816 
	C382.302002,121.255882 377.627380,121.131012 372.041962,121.055923 
	C355.067596,121.004753 338.093262,120.953583 321.037323,119.981148 
	C321.024811,88.164421 321.010254,56.347691 321.000641,24.530962 
	C320.995758,8.372635 320.999786,8.372634 304.041382,9.037217 
z"/>
<path fill="#C1AEAE" opacity="1.000000" stroke="none" 
	d="
M373.826233,330.963348 
	C373.222076,337.450409 372.458527,343.927429 372.047913,350.426727 
	C371.269196,362.752655 370.770264,375.096161 370.012390,387.423584 
	C369.094971,402.345306 368.057800,417.259857 367.017456,432.173706 
	C366.412292,440.848724 365.743073,449.519806 365.024048,458.186157 
	C364.064972,469.746582 363.408691,481.350677 361.894470,492.840057 
	C360.872955,500.590912 354.776337,505.005859 347.130707,505.004944 
	C287.684662,504.997864 228.237457,504.807709 168.793579,505.166901 
	C157.298691,505.236389 152.064270,497.939362 151.076111,489.101593 
	C150.179962,481.086609 150.322571,472.955475 150.531799,464.405518 
	C159.301163,464.624878 167.545944,465.314331 175.899078,465.990753 
	C176.007431,465.977722 176.225815,465.978638 176.173950,466.347534 
	C178.919678,476.758850 184.175262,480.979248 194.260681,480.987335 
	C236.184189,481.020966 278.107758,481.033752 320.031250,480.979431 
	C331.185547,480.964966 337.556396,474.410034 338.057037,463.420410 
	C338.525116,453.144287 339.464600,442.889587 340.197052,432.625519 
	C341.496216,414.419861 342.795685,396.214203 344.285339,377.745728 
	C344.686859,376.642273 344.898132,375.801605 345.385010,374.781677 
	C353.685394,361.600952 361.677246,348.579010 369.774170,335.622742 
	C370.851562,333.898804 372.462402,332.508270 373.826233,330.963348 
z"/>
<path fill="#D8D6D5" opacity="1.000000" stroke="none" 
	d="
M175.790726,466.003784 
	C167.545944,465.314331 159.301163,464.624878 150.619781,463.945282 
	C149.788544,461.566620 149.186050,459.191376 149.032700,456.787506 
	C147.965073,440.051453 147.036774,423.306549 145.967163,406.570648 
	C145.413086,397.901245 144.687561,389.242401 143.993698,380.582458 
	C142.685272,364.252075 141.326340,347.925720 140.026154,331.594696 
	C139.621490,326.512054 139.292404,321.422272 139.009003,316.331299 
	C138.314072,303.848389 137.751358,291.357544 136.976639,278.879761 
	C136.071274,264.297577 135.005829,249.725266 133.994202,235.149734 
	C133.005569,220.905609 131.980042,206.664017 131.003464,192.419067 
	C130.307053,182.260696 129.664764,172.098587 129.463104,161.469238 
	C137.630524,161.054367 145.333160,161.108398 153.029907,161.583710 
	C154.046234,174.805954 155.068481,187.606934 156.082779,200.818634 
	C156.500397,207.036407 156.914429,212.844330 157.353561,218.650345 
	C158.896835,239.054993 160.461411,259.458069 161.993195,279.863556 
	C163.126556,294.961670 164.202332,310.064087 165.338257,325.161987 
	C166.873535,345.567993 168.440079,365.971619 169.996613,386.376038 
	C171.198792,402.135529 172.441986,417.891968 173.598938,433.654785 
	C174.390076,444.433319 175.064270,455.220490 175.790726,466.003784 
z"/>
<path fill="#898080" opacity="1.000000" stroke="none" 
	d="
M116.164368,144.976593 
	C117.328430,138.589233 118.203522,132.130127 119.764854,125.841400 
	C120.702232,122.065887 123.782471,120.910408 127.819557,120.919098 
	C181.199951,121.033989 234.580704,120.987083 288.896851,120.968109 
	C300.261200,120.937859 310.690063,120.920135 321.118896,120.902412 
	C338.093262,120.953583 355.067596,121.004753 372.506165,121.545593 
	C373.507294,125.475082 373.956848,128.931274 374.598206,132.351501 
	C376.233551,141.072281 373.102295,144.992752 364.279877,144.993088 
	C281.574707,144.996262 198.869537,144.984238 116.164368,144.976593 
z"/>
<path fill="#7C6D6D" opacity="1.000000" stroke="none" 
	d="
M115.975296,145.328613 
	C198.869537,144.984238 281.574707,144.996262 364.279877,144.993088 
	C373.102295,144.992752 376.233551,141.072281 374.598206,132.351501 
	C373.956848,128.931274 373.507294,125.475082 372.967926,121.616287 
	C377.627380,121.131012 382.302002,121.255882 386.947632,120.945816 
	C391.796722,120.622177 394.026611,123.512451 394.904175,127.433693 
	C396.546722,134.773224 397.691010,142.223755 399.066681,149.623642 
	C400.607544,157.912231 398.146423,160.984634 389.913086,160.999863 
	C388.579895,161.002319 387.246704,161.000671 384.992828,161.000641 
	C376.369476,161.054535 368.666840,161.108734 360.501556,161.100037 
	C295.524323,161.024567 231.009720,161.008682 166.495102,161.006516 
	C162.008667,161.006363 157.522232,161.108093 153.035797,161.162445 
	C145.333160,161.108398 137.630524,161.054367 129.458588,161.002625 
	C126.526848,161.002625 124.058716,161.107178 121.603172,160.976013 
	C116.284798,160.691940 113.112213,156.378448 114.347580,151.220657 
	C114.791901,149.365540 115.304695,147.526840 115.975296,145.328613 
z"/>
<path fill="#D8D6D5" opacity="1.000000" stroke="none" 
	d="
M360.964172,161.162933 
	C368.666840,161.108734 376.369476,161.054535 384.541443,161.002716 
	C384.339966,174.652130 383.745209,188.303497 382.972076,201.944748 
	C382.443665,211.268234 381.652069,220.576599 381.003815,229.893524 
	C379.990356,244.459183 378.999054,259.026398 377.997437,273.592896 
	C377.332977,283.256409 376.688446,292.921356 375.995453,302.582825 
	C375.338562,311.740265 374.630188,320.893982 373.885315,330.506348 
	C372.462402,332.508270 370.851562,333.898804 369.774170,335.622742 
	C361.677246,348.579010 353.685394,361.600952 345.348022,374.333221 
	C345.474060,367.260406 345.855133,360.452454 346.362244,353.653870 
	C347.883667,333.257416 349.452576,312.864502 351.006256,292.470428 
	C352.206299,276.717896 353.478180,260.970398 354.595978,245.212036 
	C355.807739,228.129578 356.878052,211.037079 358.165710,193.567627 
	C359.202332,182.511841 360.083252,171.837387 360.964172,161.162933 
z"/>

<path fill="#AF7442" opacity="1.000000" stroke="none" 
	d="
M358.010010,193.948959 
	C356.878052,211.037079 355.807739,228.129578 354.595978,245.212036 
	C353.478180,260.970398 352.206299,276.717896 351.006256,292.470428 
	C349.452576,312.864502 347.883667,333.257416 346.362244,353.653870 
	C345.855133,360.452454 345.474060,367.260406 345.072388,374.512512 
	C344.898132,375.801605 344.686859,376.642273 343.992249,377.916077 
	C338.046814,384.934723 332.584747,391.520172 327.094116,397.664795 
	C327.718964,388.285278 328.367615,379.346222 329.027130,370.407990 
	C329.735687,360.804413 330.446594,351.201019 331.170654,341.598602 
	C332.443573,324.716888 333.734833,307.836517 335.003662,290.954498 
	C335.737885,281.185822 336.472809,271.417023 337.154633,261.644592 
	C338.136566,247.569321 339.249207,233.499573 339.950867,219.409805 
	C340.311768,212.162125 336.256775,209.129196 329.099274,211.037659 
	C321.068909,213.178818 313.169250,215.805115 305.175201,218.088852 
	C280.008850,225.278305 254.748428,227.690872 229.789291,217.649673 
	C214.536163,211.513245 199.048431,209.485947 182.510361,212.076324 
	C176.241776,210.587234 171.510635,211.946152 170.915680,216.666794 
	C169.784927,225.638626 168.505829,235.020035 175.062744,243.373108 
	C176.058197,255.705688 177.081329,267.611908 177.986877,279.527130 
	C178.804840,290.290039 179.434250,301.067291 180.254532,311.829987 
	C181.452850,327.553009 182.798935,343.264740 183.983261,358.988739 
	C184.793961,369.752472 185.375458,380.533295 186.168396,391.298492 
	C187.399948,408.018402 188.318405,424.776825 190.180084,441.428314 
	C191.114044,449.781982 188.497391,459.493652 196.637360,465.833862 
	C189.518219,465.916046 182.872009,465.947357 176.225815,465.978638 
	C176.225815,465.978638 176.007431,465.977722 175.899078,465.990753 
	C175.064270,455.220490 174.390076,444.433319 173.598938,433.654785 
	C172.441986,417.891968 171.198792,402.135529 169.996613,386.376038 
	C168.440079,365.971619 166.873535,345.567993 165.338257,325.161987 
	C164.202332,310.064087 163.126556,294.961670 161.993195,279.863556 
	C160.461411,259.458069 158.896835,239.054993 157.353561,218.650345 
	C156.914429,212.844330 156.500397,207.036407 156.488251,200.722778 
	C161.619461,199.293869 166.323395,198.292221 171.057480,197.462784 
	C193.208466,193.581787 214.885574,193.994583 236.134476,202.835236 
	C243.178970,205.766098 251.124542,207.123001 258.786713,207.856598 
	C275.756195,209.481308 292.162018,205.975571 308.153748,200.454605 
	C324.336975,194.867538 340.767670,191.341415 358.010010,193.948959 
z"/>
<path fill="#935C2E" opacity="1.000000" stroke="none" 
	d="
M176.173950,466.347534 
	C182.872009,465.947357 189.518219,465.916046 197.036804,465.796021 
	C204.273209,465.196686 210.637192,464.686096 217.359573,464.368805 
	C218.366837,464.694000 219.015610,464.940765 219.664612,464.941345 
	C250.960800,464.969330 282.257141,465.021088 313.553131,464.944366 
	C319.308472,464.930237 322.604004,461.291565 322.998383,455.476288 
	C323.503418,448.029083 324.179657,440.593506 324.683594,433.146240 
	C325.433838,422.059326 326.097809,410.966553 326.841614,399.578979 
	C326.964081,398.889648 327.043396,398.497650 327.122681,398.105652 
	C332.584747,391.520172 338.046814,384.934723 343.801941,378.178894 
	C342.795685,396.214203 341.496216,414.419861 340.197052,432.625519 
	C339.464600,442.889587 338.525116,453.144287 338.057037,463.420410 
	C337.556396,474.410034 331.185547,480.964966 320.031250,480.979431 
	C278.107758,481.033752 236.184189,481.020966 194.260681,480.987335 
	C184.175262,480.979248 178.919678,476.758850 176.173950,466.347534 
z"/>
<path fill="#EDEBEB" opacity="1.000000" stroke="none" 
	d="
M358.165710,193.567627 
	C340.767670,191.341415 324.336975,194.867538 308.153748,200.454605 
	C292.162018,205.975571 275.756195,209.481308 258.786713,207.856598 
	C251.124542,207.123001 243.178970,205.766098 236.134476,202.835236 
	C214.885574,193.994583 193.208466,193.581787 171.057480,197.462784 
	C166.323395,198.292221 161.619461,199.293869 156.496185,200.312042 
	C155.068481,187.606934 154.046234,174.805954 153.029907,161.583710 
	C157.522232,161.108093 162.008667,161.006363 166.495102,161.006516 
	C231.009720,161.008682 295.524323,161.024567 360.501556,161.100037 
	C360.083252,171.837387 359.202332,182.511841 358.165710,193.567627 
z"/>
<path fill="#BC855C" opacity="1.000000" stroke="none" 
	d="
M327.094147,397.664795 
	C327.043396,398.497650 326.964081,398.889648 326.530945,399.686096 
	C325.025513,401.204559 323.888306,402.333954 322.719818,403.429962 
	C318.228973,407.642395 313.728027,411.844086 309.145752,415.680298 
	C307.179718,412.770721 305.821167,409.349030 303.315033,407.864136 
	C297.050049,404.151947 290.319611,401.197144 283.669830,398.171600 
	C278.428558,395.786835 274.608093,397.068604 271.998779,402.116302 
	C268.567566,408.753967 265.310089,415.488098 262.194763,422.280182 
	C259.711975,427.693207 261.149902,431.339966 266.506348,434.215942 
	C270.002502,436.093109 273.514923,437.939819 276.943054,440.143188 
	C275.669647,441.589264 274.657715,443.119934 273.247864,443.727997 
	C261.236572,448.908447 249.268814,454.226959 237.043808,458.859619 
	C230.614685,461.295868 223.697815,462.445099 217.001190,464.175476 
	C210.637192,464.686096 204.273209,465.196686 197.509766,465.745117 
	C188.497391,459.493652 191.114044,449.781982 190.180084,441.428314 
	C188.318405,424.776825 187.399948,408.018402 186.168396,391.298492 
	C185.375458,380.533295 184.793961,369.752472 183.983261,358.988739 
	C182.798935,343.264740 181.452850,327.553009 180.254532,311.829987 
	C179.434250,301.067291 178.804840,290.290039 177.986877,279.527130 
	C177.081329,267.611908 176.058197,255.705688 175.431061,243.455322 
	C183.064194,244.781952 186.940582,241.817642 187.023132,234.437119 
	C187.063766,230.805984 187.481979,227.074554 186.803238,223.567749 
	C186.045364,219.652130 184.237015,215.939819 182.885864,212.139023 
	C199.048431,209.485947 214.536163,211.513245 229.789291,217.649673 
	C254.748428,227.690872 280.008850,225.278305 305.175201,218.088852 
	C313.169250,215.805115 321.068909,213.178818 329.099274,211.037659 
	C336.256775,209.129196 340.311768,212.162125 339.950867,219.409805 
	C339.249207,233.499573 338.136566,247.569321 337.154633,261.644592 
	C336.472809,271.417023 335.737885,281.185822 335.003662,290.954498 
	C333.734833,307.836517 332.443573,324.716888 331.170654,341.598602 
	C330.446594,351.201019 329.735687,360.804413 329.027130,370.407990 
	C328.367615,379.346222 327.718964,388.285278 327.094147,397.664795 
M256.751404,255.079529 
	C255.501266,253.366364 254.563934,251.245834 252.949966,250.006516 
	C242.916855,242.302368 232.777206,234.734222 222.577866,227.250488 
	C217.726044,223.690521 213.601105,224.254135 210.015015,228.966461 
	C202.353928,239.033585 194.782547,249.170502 187.292023,259.365234 
	C183.609039,264.377838 184.279587,268.419037 189.317871,272.233276 
	C199.138748,279.668335 209.005707,287.043427 218.909470,294.367798 
	C224.437714,298.456238 228.325241,297.880249 232.510468,292.348175 
	C239.841705,282.657684 247.183853,272.971405 254.269684,263.102570 
	C255.714233,261.090668 256.047974,258.281219 256.751404,255.079529 
M272.895264,297.984894 
	C263.409058,307.320770 253.879288,316.612946 244.454193,326.010132 
	C239.412582,331.036774 239.503357,334.994415 244.623291,340.154724 
	C253.065521,348.663605 261.533905,357.147125 270.049530,365.582458 
	C274.968445,370.454956 278.983856,370.500000 283.845215,365.695099 
	C292.488525,357.152191 301.081970,348.558014 309.625854,339.915710 
	C314.463257,335.022552 314.486969,330.984711 309.663910,326.096680 
	C301.128357,317.446198 292.458160,308.928680 283.914337,300.286285 
	C280.941193,297.278839 277.685822,295.944916 272.895264,297.984894 
M192.001343,372.582581 
	C192.714462,379.534790 193.370667,386.493439 194.157593,393.437286 
	C194.865509,399.683929 197.866272,402.404510 204.113037,401.962433 
	C211.578537,401.434052 219.036453,400.655182 226.456223,399.672089 
	C231.827835,398.960388 234.361755,395.853149 233.981445,390.350128 
	C233.454010,382.718201 232.671509,375.093475 231.676590,367.507843 
	C230.974289,362.153351 227.844131,359.635223 222.326950,360.020050 
	C214.695068,360.552368 207.070496,361.334747 199.484314,362.327301 
	C194.197342,363.019012 192.256317,365.730225 192.001343,372.582581 
M322.058899,273.655518 
	C325.379700,264.818085 328.937836,256.059357 331.907013,247.105316 
	C333.132782,243.408768 331.194275,239.978012 327.545074,238.549774 
	C319.807465,235.521362 311.971222,232.705170 304.047302,230.208557 
	C299.685242,228.834167 295.966888,230.604187 294.289093,234.936432 
	C291.407440,242.377274 288.735687,249.911148 286.310211,257.512665 
	C284.754883,262.387054 286.673004,266.097656 291.451904,267.910706 
	C298.603027,270.623749 305.763306,273.401855 313.116516,275.443329 
	C315.603973,276.133911 318.688873,274.672546 322.058899,273.655518 
z"/>
<path fill="#DAA682" opacity="1.000000" stroke="none" 
	d="
M182.510361,212.076324 
	C184.237015,215.939819 186.045364,219.652130 186.803238,223.567749 
	C187.481979,227.074554 187.063766,230.805984 187.023132,234.437119 
	C186.940582,241.817642 183.064194,244.781952 175.407532,243.032898 
	C168.505829,235.020035 169.784927,225.638626 170.915680,216.666794 
	C171.510635,211.946152 176.241776,210.587234 182.510361,212.076324 
z"/>
<path fill="#AF7341" opacity="1.000000" stroke="none" 
	d="
M309.230865,416.049805 
	C313.728027,411.844086 318.228973,407.642395 322.719818,403.429962 
	C323.888306,402.333954 325.025513,401.204559 326.487793,399.983398 
	C326.097809,410.966553 325.433838,422.059326 324.683594,433.146240 
	C324.179657,440.593506 323.503418,448.029083 322.998383,455.476288 
	C322.604004,461.291565 319.308472,464.930237 313.553131,464.944366 
	C282.257141,465.021088 250.960800,464.969330 219.664612,464.941345 
	C219.015610,464.940765 218.366837,464.694000 217.359573,464.368774 
	C223.697815,462.445099 230.614685,461.295868 237.043808,458.859619 
	C249.268814,454.226959 261.236572,448.908447 273.247864,443.727997 
	C274.657715,443.119934 275.669647,441.589264 277.303162,440.225159 
	C280.760651,441.326904 283.748901,442.767090 286.808746,444.034546 
	C291.560394,446.002747 295.481903,444.878143 297.764923,440.334991 
	C301.783325,432.338654 305.429077,424.154999 309.230865,416.049805 
z"/>
<path fill="#D8D5D5" opacity="1.000000" stroke="none" 
	d="
M256.822571,255.459473 
	C256.047974,258.281219 255.714233,261.090668 254.269684,263.102570 
	C247.183853,272.971405 239.841705,282.657684 232.510468,292.348175 
	C228.325241,297.880249 224.437714,298.456238 218.909470,294.367798 
	C209.005707,287.043427 199.138748,279.668335 189.317871,272.233276 
	C184.279587,268.419037 183.609039,264.377838 187.292023,259.365234 
	C194.782547,249.170502 202.353928,239.033585 210.015015,228.966461 
	C213.601105,224.254135 217.726044,223.690521 222.577866,227.250488 
	C232.777206,234.734222 242.916855,242.302368 252.949966,250.006516 
	C254.563934,251.245834 255.501266,253.366364 256.822571,255.459473 
M227.463531,272.068909 
	C228.811066,270.385651 230.203156,268.735931 231.498138,267.013184 
	C236.219330,260.732422 235.699280,257.007629 229.474091,252.300430 
	C228.017273,251.198822 226.583572,250.051102 225.040131,249.082550 
	C220.699341,246.358597 217.469238,246.781067 213.939575,250.571716 
	C212.700562,251.902344 211.675217,253.434708 210.578659,254.894745 
	C206.456421,260.383331 206.276810,263.366730 209.809250,267.332855 
	C215.943649,274.220367 221.142044,275.811249 227.463531,272.068909 
z"/>
<path fill="#D8D6D6" opacity="1.000000" stroke="none" 
	d="
M273.236328,297.800232 
	C277.685822,295.944916 280.941193,297.278839 283.914337,300.286285 
	C292.458160,308.928680 301.128357,317.446198 309.663910,326.096680 
	C314.486969,330.984711 314.463257,335.022552 309.625854,339.915710 
	C301.081970,348.558014 292.488525,357.152191 283.845215,365.695099 
	C278.983856,370.500000 274.968445,370.454956 270.049530,365.582458 
	C261.533905,357.147125 253.065521,348.663605 244.623291,340.154724 
	C239.503357,334.994415 239.412582,331.036774 244.454193,326.010132 
	C253.879288,316.612946 263.409058,307.320770 273.236328,297.800232 
M290.785248,333.365356 
	C289.419342,326.516876 284.350372,322.399048 278.768829,319.787628 
	C273.449249,317.298706 270.841064,323.112396 267.428314,325.953827 
	C266.667755,326.587036 265.997711,327.340881 265.346924,328.091980 
	C262.510468,331.365570 262.615143,334.603088 265.344543,337.940857 
	C271.912994,345.973511 276.395691,348.699768 280.140472,345.673676 
	C284.151917,342.432068 287.204315,338.003662 290.785248,333.365356 
z"/>
<path fill="#D8D5D4" opacity="1.000000" stroke="none" 
	d="
M191.981049,372.139771 
	C192.256317,365.730225 194.197342,363.019012 199.484314,362.327301 
	C207.070496,361.334747 214.695068,360.552368 222.326950,360.020050 
	C227.844131,359.635223 230.974289,362.153351 231.676590,367.507843 
	C232.671509,375.093475 233.454010,382.718201 233.981445,390.350128 
	C234.361755,395.853149 231.827835,398.960388 226.456223,399.672089 
	C219.036453,400.655182 211.578537,401.434052 204.113037,401.962433 
	C197.866272,402.404510 194.865509,399.683929 194.157593,393.437286 
	C193.370667,386.493439 192.714462,379.534790 191.981049,372.139771 
M216.950806,382.267029 
	C216.321243,380.554932 216.152420,378.152985 214.926285,377.334076 
	C213.807938,376.587158 211.137283,377.020447 209.917786,377.945099 
	C209.005951,378.636505 208.924454,380.997833 209.159668,382.508728 
	C209.662415,385.738251 213.187714,385.957977 216.950806,382.267029 
z"/>
<path fill="#D8D5D5" opacity="1.000000" stroke="none" 
	d="
M309.145752,415.680298 
	C305.429077,424.154999 301.783325,432.338654 297.764923,440.334991 
	C295.481903,444.878143 291.560394,446.002747 286.808746,444.034546 
	C283.748901,442.767090 280.760651,441.326904 277.380188,439.882141 
	C273.514923,437.939819 270.002502,436.093109 266.506348,434.215942 
	C261.149902,431.339966 259.711975,427.693207 262.194763,422.280182 
	C265.310089,415.488098 268.567566,408.753967 271.998779,402.116302 
	C274.608093,397.068604 278.428558,395.786835 283.669830,398.171600 
	C290.319611,401.197144 297.050049,404.151947 303.315033,407.864136 
	C305.821167,409.349030 307.179718,412.770721 309.145752,415.680298 
M281.214386,419.666351 
	C279.202515,423.000793 281.722595,423.900940 284.014160,425.070374 
	C286.930420,426.558655 287.749237,424.494812 288.810181,422.539459 
	C289.959656,420.420929 289.822174,418.928162 287.436737,417.731354 
	C284.984039,416.500854 282.829285,415.504456 281.214386,419.666351 
z"/>
<path fill="#D8D5D5" opacity="1.000000" stroke="none" 
	d="
M321.779816,273.925049 
	C318.688873,274.672546 315.603973,276.133911 313.116516,275.443329 
	C305.763306,273.401855 298.603027,270.623749 291.451904,267.910706 
	C286.673004,266.097656 284.754883,262.387054 286.310211,257.512665 
	C288.735687,249.911148 291.407440,242.377274 294.289093,234.936432 
	C295.966888,230.604187 299.685242,228.834167 304.047302,230.208557 
	C311.971222,232.705170 319.807465,235.521362 327.545074,238.549774 
	C331.194275,239.978012 333.132782,243.408768 331.907013,247.105316 
	C328.937836,256.059357 325.379700,264.818085 321.779816,273.925049 
M305.229065,251.731995 
	C303.015717,256.250702 307.010223,257.475372 309.348114,257.179260 
	C311.228577,256.941071 312.727966,253.694626 314.396423,251.782959 
	C314.037964,251.370773 313.679474,250.958588 313.320984,250.546387 
	C310.702148,250.577805 307.989044,245.448669 305.229065,251.731995 
z"/>
<path fill="#FEFEFE" opacity="1.000000" stroke="none" 
	d="
M227.194733,272.320068 
	C221.142044,275.811249 215.943649,274.220367 209.809250,267.332855 
	C206.276810,263.366730 206.456421,260.383331 210.578659,254.894745 
	C211.675217,253.434708 212.700562,251.902344 213.939575,250.571716 
	C217.469238,246.781067 220.699341,246.358597 225.040131,249.082550 
	C226.583572,250.051102 228.017273,251.198822 229.474091,252.300430 
	C235.699280,257.007629 236.219330,260.732422 231.498138,267.013184 
	C230.203156,268.735931 228.811066,270.385651 227.194733,272.320068 
z"/>
<path fill="#FEFEFE" opacity="1.000000" stroke="none" 
	d="
M290.730286,333.729309 
	C287.204315,338.003662 284.151917,342.432068 280.140472,345.673676 
	C276.395691,348.699768 271.912994,345.973511 265.344543,337.940857 
	C262.615143,334.603088 262.510468,331.365570 265.346924,328.091980 
	C265.997711,327.340881 266.667755,326.587036 267.428314,325.953827 
	C270.841064,323.112396 273.449249,317.298706 278.768829,319.787628 
	C284.350372,322.399048 289.419342,326.516876 290.730286,333.729309 
z"/>
<path fill="#FDFDFD" opacity="1.000000" stroke="none" 
	d="
M216.888321,382.681610 
	C213.187714,385.957977 209.662415,385.738251 209.159668,382.508728 
	C208.924454,380.997833 209.005951,378.636505 209.917786,377.945099 
	C211.137283,377.020447 213.807938,376.587158 214.926285,377.334076 
	C216.152420,378.152985 216.321243,380.554932 216.888321,382.681610 
z"/>
<path fill="#FDFDFD" opacity="1.000000" stroke="none" 
	d="
M281.378113,419.352722 
	C282.829285,415.504456 284.984039,416.500854 287.436737,417.731354 
	C289.822174,418.928162 289.959656,420.420929 288.810181,422.539459 
	C287.749237,424.494812 286.930420,426.558655 284.014160,425.070374 
	C281.722595,423.900940 279.202515,423.000793 281.378113,419.352722 
z"/>
<path fill="#FDFDFD" opacity="1.000000" stroke="none" 
	d="
M305.350708,251.400391 
	C307.989044,245.448669 310.702148,250.577805 313.320984,250.546387 
	C313.679474,250.958588 314.037964,251.370773 314.396423,251.782959 
	C312.727966,253.694626 311.228577,256.941071 309.348114,257.179260 
	C307.010223,257.475372 303.015717,256.250702 305.350708,251.400391 
z"/>
</svg>