<?xml version="1.0" standalone="no"?>
<!DOCTYPE svg PUBLIC "-//W3C//DTD SVG 20010904//EN"
 "http://www.w3.org/TR/2001/REC-SVG-20010904/DTD/svg10.dtd">
<svg version="1.0" xmlns="http://www.w3.org/2000/svg"
 width="300.000000pt" height="129.000000pt" viewBox="0 0 300.000000 129.000000"
 preserveAspectRatio="xMidYMid meet">
<metadata>
Created by potrace 1.10, written by Peter Selinger 2001-2011
</metadata>
<g transform="translate(0.000000,129.000000) scale(0.100000,-0.100000)"
fill="white" stroke="none"> 
<path d="M1944 1096 c-55 -24 -112 -51 -126 -60 -25 -17 -26 -16 -47 17 -24
39 -59 73 -67 65 -3 -3 6 -29 20 -57 14 -28 26 -52 26 -54 0 -3 -25 -20 -55
-38 -30 -18 -55 -39 -55 -46 0 -14 16 -18 22 -5 7 18 102 75 106 64 2 -6 28
-49 58 -94 48 -75 52 -84 37 -95 -9 -7 -31 -13 -49 -13 -26 0 -34 6 -44 30 -7
17 -16 30 -21 30 -18 0 -20 -22 -4 -46 19 -29 12 -44 -20 -44 -46 0 -54 8 -39
40 17 33 4 80 -21 80 -23 0 -39 -49 -27 -82 8 -21 6 -30 -11 -47 -28 -28 -13
-40 16 -13 20 19 28 20 57 12 24 -7 42 -6 64 4 17 7 53 20 79 28 l48 16 24
-36 24 -36 -77 -44 c-75 -42 -159 -95 -215 -134 -28 -19 -47 -17 -47 6 0 7
-18 57 -40 112 -22 54 -40 104 -40 110 0 16 -29 39 -37 30 -4 -4 0 -19 9 -34
20 -33 11 -55 -35 -83 -20 -12 -26 -19 -15 -19 9 0 30 12 47 26 l30 25 14 -33
c30 -72 58 -168 52 -178 -3 -5 -13 -10 -21 -10 -8 0 -14 -4 -14 -10 0 -12 10
-13 30 0 17 11 30 -4 30 -37 0 -19 -4 -21 -46 -17 -25 3 -59 11 -75 20 -16 8
-29 11 -29 6 0 -18 76 -43 121 -40 l44 3 -3 42 c-2 39 0 43 25 49 16 4 53 13
83 21 134 34 266 25 331 -22 18 -14 39 -25 47 -25 17 0 1 27 -80 140 -57 79
-67 100 -49 100 12 0 277 146 328 181 38 26 55 49 37 49 -11 0 -64 -34 -64
-41 0 -8 -99 -66 -240 -142 l-86 -46 -26 42 c-47 76 -129 238 -123 246 4 8
237 111 250 111 3 0 3 -5 -1 -11 -4 -7 -1 -10 7 -7 8 3 15 12 17 21 5 26 -22
20 -134 -27z m-268 -290 c-3 -14 -11 -26 -16 -26 -11 0 -14 53 -3 64 13 12 26
-13 19 -38z m338 -196 c36 -49 66 -91 66 -94 0 -3 -23 7 -52 22 -80 41 -179
37 -363 -14 -23 -7 93 68 205 132 41 24 76 44 77 44 1 0 31 -40 67 -90z"/>
<path d="M1374 879 c-2 -4 11 -11 30 -15 52 -9 64 0 16 12 -22 6 -43 8 -46 3z"/>
<path d="M1280 841 c0 -5 14 -14 30 -20 34 -11 39 -5 13 15 -21 15 -43 18 -43
5z"/>
<path d="M1350 718 c37 -58 45 -78 34 -96 -23 -36 -42 -38 -93 -9 -27 15 -51
24 -54 20 -8 -15 5 -93 15 -87 5 3 6 19 3 35 -8 34 -7 35 42 9 46 -24 78 -17
97 19 l14 26 28 -58 c24 -48 44 -72 44 -52 0 26 -122 225 -138 225 -10 0 -9
-8 8 -32z"/>
<path d="M1012 723 c2 -5 19 -39 39 -78 54 -104 55 -111 20 -118 -22 -5 -32
-14 -37 -32 -8 -33 -14 -32 -42 8 -40 56 -132 153 -132 138 0 -8 8 -23 18 -34
11 -12 17 -35 17 -66 0 -90 -5 -89 -116 22 -58 57 -104 96 -107 89 -2 -7 6
-38 19 -68 17 -43 19 -58 9 -64 -7 -5 -8 -10 -2 -14 5 -3 31 -40 57 -82 l47
-75 -28 -30 c-33 -34 -29 -43 15 -28 18 6 33 10 35 8 1 -2 17 -34 36 -71 19
-38 40 -68 46 -68 12 0 8 40 -6 50 -10 8 -50 80 -50 91 0 17 95 10 135 -11 40
-20 75 -26 75 -12 0 4 -38 45 -84 91 -47 47 -82 89 -78 95 4 6 9 33 12 60 l5
48 51 -63 c29 -35 62 -85 74 -111 21 -46 40 -62 40 -35 0 7 -9 29 -20 50 -23
42 -19 82 10 97 32 17 40 11 42 -32 l1 -43 4 38 c2 20 8 35 14 32 14 -9 11
-61 -5 -74 -16 -14 -27 -61 -14 -61 13 0 41 70 41 103 0 15 -9 37 -20 50 -11
12 -24 33 -28 47 -4 14 -16 41 -27 60 -19 32 -16 31 28 -15 27 -28 63 -66 79
-86 32 -38 78 -72 87 -64 7 8 -3 65 -12 65 -5 0 -10 -10 -12 -22 -3 -20 -9
-15 -53 36 -27 33 -78 88 -113 123 -59 58 -79 74 -70 56z m-142 -283 c0 -3
-13 -21 -28 -40 l-28 -33 -36 64 c-20 35 -48 93 -62 129 l-27 65 91 -90 c49
-49 90 -92 90 -95z m140 -125 c16 -19 4 -19 -51 1 -28 10 -60 13 -86 10 -38
-5 -43 -3 -43 15 0 11 12 36 26 55 l26 34 58 -50 c31 -27 63 -56 70 -65z"/>
</g>
</svg>
